<svg xmlns="http://www.w3.org/2000/svg" viewBox="0 0 314.81 68.01"><defs><style>.cls-1{fill:#a17d23;}.cls-1,.cls-8{fill-rule:evenodd;}.cls-2{fill:#df6810;}.cls-3{fill:#118f44;}.cls-4{fill:#df0840;}.cls-5{fill:#fff;}.cls-6{fill:#fbda00;}.cls-7{fill:#294277;}.cls-8{fill:#d29e0e;}</style></defs><g id="Camada_2" data-name="Camada 2"><g id="Camada_1-2" data-name="Camada 1"><path class="cls-1" d="M22,5.49a10,10,0,0,0-1.51-1A7.39,7.39,0,0,0,17.24,4c-.3,0,0,0-.23.08.09.35,1,1,1.3,1.46.09.13.08.14.18.28s.1,0,.13.34c-.22-.06-.32-.13-.56-.21a8.46,8.46,0,0,0-4.91,0l-.88.35c-.3.13-.63.29-.88.43l-1.26.89c-1.54,1.28-.71.8,0,.8.55,0,2.63-.11,3,.39a28.19,28.19,0,0,0-3.09,1.36l-.36.19a12.56,12.56,0,0,0-2,1.35c-.15.13-.2.15-.35.27a14.26,14.26,0,0,0-2.25,2.28c-.15.21-.32.41-.46.62s-.29.46-.45.7a5.5,5.5,0,0,0-.71,1.6l.38-.08a20.52,20.52,0,0,1,2.53-1l.28-.1L7,15.91l1-.2a.81.81,0,0,1-.13.11l-.15.07-.79.45a13.13,13.13,0,0,0-2,1.39,6.93,6.93,0,0,0-.58.5,11.84,11.84,0,0,0-2.94,4.21,2.83,2.83,0,0,0-.14.41A6.47,6.47,0,0,0,.77,25c.27-.07.37-.25.56-.44l.54-.46A13.76,13.76,0,0,1,3,23.19a8.92,8.92,0,0,1,2.51-1.56,3.28,3.28,0,0,1-.44.56c-.1.11-.17.16-.27.27s-.11.16-.23.3L3.6,23.92c-.15.21-.24.38-.4.6l-.43.65A17.22,17.22,0,0,0,.3,31,14.23,14.23,0,0,0,0,34.7a2.71,2.71,0,0,0,.12.72l.34.66A6.24,6.24,0,0,1,1,35,22,22,0,0,1,4.2,30.28l0,0,.39-.38a2.42,2.42,0,0,1,1.54-.93c-.08.29-1.51,2.34-1.74,2.72-.54.89-.95,1.82-1.41,2.75l-.56,1.36c-.07.19-.11.34-.2.58L1.38,40c0,.23,0,.53,0,.77s-.08.46-.08.69.08.32.08.69a8.6,8.6,0,0,0,.4,2.6c.15.41.23.73.4,1.14l.36.79c.18.25,0,.07.22.16a15.47,15.47,0,0,1,.08-2.3A11.71,11.71,0,0,1,4.77,39.7,13.13,13.13,0,0,1,7,37.1,23.28,23.28,0,0,1,9.87,35c.19-.11.19-.16.44-.18a4.38,4.38,0,0,1-.67,1.09,31.41,31.41,0,0,0-2.92,5.39,1.06,1.06,0,0,0-.08.23L6.46,42a28.34,28.34,0,0,0-.88,3,13.53,13.53,0,0,0-.34,2.64,6.73,6.73,0,0,0,0,2,13.35,13.35,0,0,0,.37,2.55,11.57,11.57,0,0,0,2,3.81,8.67,8.67,0,0,0,.94,1,3.48,3.48,0,0,0,.49.44c.43.31,1.38,1.1,1.88,1.12a4.68,4.68,0,0,0-.48-1.29,3,3,0,0,1-.21-.64A7.66,7.66,0,0,1,10,54.45a5.59,5.59,0,0,1,.93-2.53l.71-1c.25-.3.6-.6.88-.89l1.39-1.15a5.71,5.71,0,0,0,.54-.38,43.68,43.68,0,0,1,7.61-4c1.34-.57,2.7-1.11,4-1.75.22-.11.36-.15.6-.25,1.81-.74,3.57-1.59,5.32-2.46l3.35-1.88a20.34,20.34,0,0,0,3.81-3.1A8.07,8.07,0,0,0,40.53,33a7.6,7.6,0,0,0,.27-5.22c-.06-.19,0-.17-.11-.34l-.47-1.07c-.2-.39-.49-.59-.59-1,1.34.71,2.69,3,3.37,4.17a5.1,5.1,0,0,1,.56,1.29h.15c0-.56.16-1.27.16-1.92A11.78,11.78,0,0,0,43.1,25l-1.79-3c-.19-.22-.21-.11-.29-.41a13.83,13.83,0,0,1,2.66,1.72,4.17,4.17,0,0,1,.4.3,1.81,1.81,0,0,0,.48.29,2.91,2.91,0,0,0-.28-1,12.8,12.8,0,0,0-1.78-3.14l-1.4-1.68,0,0L41,18c-.55-.61-2.27-1.9-2.51-2.26l2.09.61c1,.35.48-.3,0-1.2a10.52,10.52,0,0,0-1.08-1.61,11.09,11.09,0,0,0-2.17-2.21,17,17,0,0,0-2.27-1.58c-.17-.09-.24-.15-.38-.23A16.79,16.79,0,0,0,31.84,8.2.74.74,0,0,1,31.4,8a9.62,9.62,0,0,1,2.77-.31c.48,0,.88.21,1.15.08-.08-.31-.85-.87-1.14-1.09s-.46-.31-.69-.46a7.9,7.9,0,0,0-2.37-1.09c-2.86-.8-4.28.19-5.11.26a3.53,3.53,0,0,1,1.08-1.46c.23-.17.26-.31.54-.39-.12-.46-.68-.3-1.08-.3a3.55,3.55,0,0,0-.77.07L23.61,4,22.22,5.24a1.21,1.21,0,0,0-.21.25M13.31,17.4c.22-.91,1.28-1.23,2-1.49,1.54-.51.74-1.35,1.12-2.34.18-.47,2-.88,2.47-1.06a8.39,8.39,0,0,1,.89-.28c.37-.09.51,0,.72.32l1.55,1.91c.2.24.92,1.18,1.13,1.18l2.13-2.56a2.3,2.3,0,0,1,.56-.6,1.64,1.64,0,0,1,.85-.29L30,13c1.57.49,1.94,1.39,2.32,2.83.22.82.51,1.24.23,1.76a12,12,0,0,1-2.23-.15c-.71-.08-1-.31-1.31-.31a3.34,3.34,0,0,0-1.86.83,2.23,2.23,0,0,0-.83,2.71c.91,0,.73-1.38,1.77-1.38,1.24,0,1.78.46,3-.32.79-.52.86-1.59,1.81.29s.13,2.45-1.2,3.16a14.31,14.31,0,0,0-1.56,1c-.2.14-.24.21-.42.34-1.16.85-.55,1.56-.21,2.13a5.61,5.61,0,0,1,.82,2.49c0,.9.12,1.45-.88,2a2.79,2.79,0,0,1-2.31.07l-2-.93c-.47-.27-1.27-.56-1.27-1.26a1.8,1.8,0,0,1,.17-1c.23-.46,1.35-1.07,1.81-1.42s1.5-1,.77-1.66c-.15-.15-.1-.14-.33-.21s-.78-.07-1-.1l-4.14,0c-.7,0-.72.17-.61-.84A14.72,14.72,0,0,0,20.63,20c0-.4,0-.17-.12-.42a3.51,3.51,0,0,0-1.36-1.71,3.4,3.4,0,0,0-2.22-.55C16,17.33,15,18.28,13.31,17.4Zm5.24,13.3a3.78,3.78,0,0,1-1.81-.5c-1.11-.75-.48-2.29,0-3.3s.91-2.48,2.27-2.2A14.45,14.45,0,0,1,22.5,27a1.47,1.47,0,0,1,.1,1.54.75.75,0,0,1-.18.27,10.41,10.41,0,0,1-2.28,1.49A3.61,3.61,0,0,1,18.55,30.7Zm5.85,0c.33,0,.27-.15.61-.15s.69.36.95.51l1.35.89c.87.56,1.16.6,1.16,1.21l-.35,1.34c-.47,1.76-1.28,1.81-2.32,2.6l-1,.74c-.59.4-.27-.3-.43-.85s-.62-1.81-1.48-1.83c-.08.38-.15.22-.15.77a4.73,4.73,0,0,1-.14,1.63c-.27.86-.92,0-1-.08a2.08,2.08,0,0,0-.59-.41l-.2-.1L19,36.05c-1.19-.72-1.61-2.6-.71-3.26a29,29,0,0,1,2.82-1.95Z"/><path class="cls-1" d="M4.92,29c0,3.23.12,4.82,2.44,6.92A10.57,10.57,0,0,0,9.7,37.2l1.46.42a16.9,16.9,0,0,0,3,.21c-.06-.77-2.64-2.28-1.49-6.12a10,10,0,0,1,3-4.18l.11-.09a41.63,41.63,0,0,1,7.59-4.63c.28-.15.38-.21.65-.33l8.41-4.71a33.72,33.72,0,0,0,4.13-2.86L39.82,12a22.87,22.87,0,0,0,2-2.57l1.44-3.3a9.59,9.59,0,0,0,0-4.7A6,6,0,0,1,43,0c-.53.14-.24.68-.45,1.62L41.9,3.53a3.49,3.49,0,0,0-.15.34,8.16,8.16,0,0,1-1.25,2c-.11.14-.11.12-.22.27L37.71,8.71a26.66,26.66,0,0,1-6.07,3.69c-2.75,1.24-5.63,2.26-8.46,3.38l-4.51,1.8c-.3.12-.35.18-.69.29-1.12.38-2.14.94-3.21,1.42l-.41.18A31.93,31.93,0,0,0,8.45,23l-.66.61,0,.05c-.37.37.25-.29-.1.11l-.77.8a7.66,7.66,0,0,0-1.76,3.46,3.41,3.41,0,0,0-.19.9"/><path class="cls-1" d="M14.28,55.5c0,3.23.12,4.82,2.44,6.92a11,11,0,0,0,2.34,1.32l1.46.41a16.9,16.9,0,0,0,3,.22c-.06-.78-2.64-2.29-1.49-6.13a10,10,0,0,1,3-4.17l.11-.09a42,42,0,0,1,7.59-4.63c.28-.15.38-.22.65-.34l8.41-4.7A34.13,34.13,0,0,0,46,41.44l3.21-2.91a23,23,0,0,0,2-2.58l1.44-3.29a9.63,9.63,0,0,0,0-4.71,5.91,5.91,0,0,1-.35-1.42c-.53.15-.24.68-.45,1.62l-.65,1.91a3.68,3.68,0,0,0-.15.35,8.85,8.85,0,0,1-1.24,2,1.94,1.94,0,0,0-.23.26l-2.57,2.56A26.1,26.1,0,0,1,41,38.93c-2.75,1.24-5.63,2.27-8.45,3.38L28,44.11a7.51,7.51,0,0,1-.69.3,31.62,31.62,0,0,0-3.21,1.42c-.17.08-.24.09-.41.18a31.89,31.89,0,0,0-5.91,3.56l-.66.62a.12.12,0,0,0,0,.05c-.37.36.25-.29-.1.1l-.77.8a7.75,7.75,0,0,0-1.76,3.47,3.42,3.42,0,0,0-.19.89"/><path class="cls-2" d="M84.51,45.25H70.14a17.12,17.12,0,0,1-12.82,2.36A14.92,14.92,0,0,1,44.63,33.06c-3.15,11.81,4.24,26.58,19.9,26.59,13.28,0,19.15-11.19,20.35-13.84a.4.4,0,0,0-.37-.56"/><path class="cls-2" d="M68.91,19.72S76,24.34,75,34.51a1.34,1.34,0,0,1-.61,1c-2.58,1.63-11.83,3.27-16.5-.47a3.91,3.91,0,0,1-1.62-3.61.4.4,0,0,1,.4-.35h9.64a.39.39,0,0,0,.4-.44c-.17-1.44-1.13-6-6.48-6.08a6.87,6.87,0,0,0-7.16,7c0,4.15,3.89,9.74,11.1,10.41C74.73,43,85.69,36.7,86,25.33c.36-11.72-12.3-20.85-25.5-21.46a.4.4,0,0,0-.36.6Z"/><path class="cls-2" d="M54.11,18A16.46,16.46,0,0,1,67,18.59,21,21,0,0,0,52,12.6c-13.93.1-27.23,15-17.33,33.54a.41.41,0,0,0,.71,0l9.45-16.39A15,15,0,0,1,54.11,18"/><path class="cls-1" d="M26.41,60.43a5.86,5.86,0,0,0,2,4.78C30.09,66.59,33.08,68,35,68a4.15,4.15,0,0,0-.69-.88l-.23-.27c-2.68-3.35-2.37-6.38.69-8.92a14.1,14.1,0,0,1,2.77-1.77c.15-.08.21-.13.39-.21l4.46-2.63.3-.19a16.59,16.59,0,0,0,1.41-1.26l1-1a11,11,0,0,0,2.34-4.77,7.76,7.76,0,0,0,.15-2.4c0-.38,0,0-.09-.3-.51.14-.86,1.11-1.66,1.9l-.59.59A30.08,30.08,0,0,1,39,50.26l-3.18,1.65a2.84,2.84,0,0,0-.39.2l-.39.21c-.55.27-1.06.55-1.56.8s-1,.51-1.56.81c-2.67,1.55-5.53,3-5.53,6.5"/><path class="cls-1" d="M10.74,47.07l.17,1.87c3.66-3.07,7.73-5,11.93-7.28a10.93,10.93,0,0,1,1-.52l13.22-5.61A54.84,54.84,0,0,0,43.57,31l5-4.57a37.72,37.72,0,0,0,3.23-4.05l2.25-5.18a15,15,0,0,0,.07-7.39,9.5,9.5,0,0,1-.55-2.22c-.84.22-.38,1.06-.71,2.54l-1,3c-.09.18-.14.33-.23.54a13.33,13.33,0,0,1-2,3.16,5.22,5.22,0,0,0-.36.42l-4,4a41.55,41.55,0,0,1-9.54,5.79c-4.31,2-8.84,3.56-13.28,5.31L15.6,36.78a11,11,0,0,1-1.08.46,54.2,54.2,0,0,0-5,2.24c-.27.12,2.52-.75,2.25-.61Z"/><path class="cls-3" d="M140.41,64.63h-2.6A1.82,1.82,0,0,1,136,62.81v-7.5h4.42Z"/><path class="cls-4" d="M149.25,64.63h-4.42V55.31h2.6a1.82,1.82,0,0,1,1.82,1.82Z"/><rect class="cls-5" x="140.41" y="55.31" width="4.42" height="9.32"/><path class="cls-3" d="M133.21,64.63H121.78A1.82,1.82,0,0,1,120,62.81v-7.5h11.44a1.82,1.82,0,0,1,1.82,1.82Z"/><path class="cls-6" d="M126.52,56.43l-4.73,3.46a.1.1,0,0,0,0,.17l4.73,3.45a.09.09,0,0,0,.12,0l4.74-3.45a.1.1,0,0,0,0-.17l-4.74-3.46a.13.13,0,0,0-.12,0"/><path class="cls-7" d="M128.34,60a1.76,1.76,0,1,1-1.76-1.75A1.76,1.76,0,0,1,128.34,60"/><polygon class="cls-2" points="162.54 62.56 162.54 64.6 156.71 64.6 156.71 55.31 162.48 55.31 162.48 57.36 158.83 57.36 158.83 58.9 162.14 58.9 162.14 60.91 158.83 60.91 158.83 62.56 162.54 62.56"/><polygon class="cls-2" points="169.41 64.6 167.84 61.92 166.28 64.6 163.86 64.6 166.63 59.84 163.99 55.31 166.41 55.31 167.84 57.77 169.28 55.31 171.69 55.31 169.05 59.84 171.82 64.6 169.41 64.6"/><path class="cls-2" d="M179,63.14h-3.45l-.46,1.46h-2.33l3.16-9.29h2.71l3.15,9.29h-2.32Zm-.64-2-1.09-3.41-1.08,3.41Z"/><path class="cls-2" d="M183,61.6V55.31h2.12v6.11c0,.7.33,1.3,1.46,1.3s1.46-.6,1.46-1.3V55.31h2.12V61.6c0,2-1.52,3.17-3.55,3.19h-.06c-2,0-3.55-1.21-3.55-3.19"/><path class="cls-2" d="M192,62.49l1.83-1.06a1.94,1.94,0,0,0,1.95,1.29c1,0,1.26-.4,1.26-.76,0-.57-.53-.8-1.92-1.18s-2.73-1.05-2.73-2.83a2.9,2.9,0,0,1,3.11-2.82,3.61,3.61,0,0,1,3.4,2.09l-1.79,1.05a1.63,1.63,0,0,0-1.61-1.07c-.66,0-1,.33-1,.7s.22.72,1.67,1.16,3,.91,3,2.87c0,1.79-1.41,2.84-3.41,2.86h-.06a3.66,3.66,0,0,1-3.69-2.3"/><polygon class="cls-2" points="206.95 57.36 204.56 57.36 204.56 64.6 202.44 64.6 202.44 57.36 200.05 57.36 200.05 55.31 206.95 55.31 206.95 57.36"/><path class="cls-2" d="M213.44,63.14H210l-.47,1.46h-2.32l3.16-9.29h2.7l3.16,9.29h-2.32Zm-2.52-8.53h-1.59c0-2.27,1.39-2.51,2.6-1.76.45.28.57.21.57-.32h1.59c0,2.27-1.39,2.51-2.6,1.76C211,54,210.92,54.08,210.92,54.61Zm1.89,6.54-1.09-3.41-1.09,3.41Z"/><path class="cls-2" d="M217.08,60a4.83,4.83,0,1,1,4.83,4.82A4.79,4.79,0,0,1,217.08,60m7.54,0a2.71,2.71,0,1,0-2.71,2.76A2.65,2.65,0,0,0,224.62,60Z"/><rect class="cls-2" x="232.83" y="55.31" width="2.12" height="9.29"/><polygon class="cls-2" points="244.63 55.31 244.63 64.6 243.04 64.6 239.46 59.56 239.46 64.6 237.34 64.6 237.34 55.31 238.93 55.31 242.51 60.35 242.51 55.31 244.63 55.31"/><path class="cls-2" d="M255.24,60a4.5,4.5,0,0,1-4.51,4.64H247V55.31h3.72A4.5,4.5,0,0,1,255.24,60m-2,0a2.39,2.39,0,0,0-2.47-2.6h-1.59v5.2h1.59A2.39,2.39,0,0,0,253.2,60Z"/><path class="cls-2" d="M257.09,61.6V55.31h2.12v6.11c0,.7.34,1.3,1.46,1.3s1.46-.6,1.46-1.3V55.31h2.12V61.6c0,2-1.52,3.17-3.55,3.19h-.06c-2,0-3.55-1.21-3.55-3.19"/><path class="cls-2" d="M266.1,62.49l1.84-1.06a1.94,1.94,0,0,0,1.94,1.29c1,0,1.26-.4,1.26-.76,0-.57-.53-.8-1.92-1.18s-2.73-1.05-2.73-2.83a2.9,2.9,0,0,1,3.12-2.82A3.6,3.6,0,0,1,273,57.22l-1.79,1.05a1.62,1.62,0,0,0-1.6-1.07c-.67,0-1,.33-1,.7s.23.72,1.67,1.16,3,.91,3,2.87c0,1.79-1.42,2.84-3.42,2.86h-.06a3.66,3.66,0,0,1-3.69-2.3"/><polygon class="cls-2" points="281.02 57.36 278.63 57.36 278.63 64.6 276.51 64.6 276.51 57.36 274.12 57.36 274.12 55.31 281.02 55.31 281.02 57.36"/><path class="cls-2" d="M285.87,61.55h-1v3h-2.12V55.31h3.71a3.18,3.18,0,0,1,3.19,3.19,3.06,3.06,0,0,1-1.71,2.69l2,3.41h-2.28Zm-1-1.86h1.59a1.2,1.2,0,0,0,0-2.39h-1.59Z"/><rect class="cls-2" x="291.69" y="55.31" width="2.12" height="9.29"/><path class="cls-2" d="M301.63,63.14h-3.45l-.46,1.46H295.4l3.16-9.29h2.7l3.16,9.29H302.1Zm-.63-2-1.09-3.41-1.09,3.41Z"/><polygon class="cls-2" points="311.44 62.56 311.44 64.6 306 64.6 306 55.31 308.13 55.31 308.13 62.56 311.44 62.56"/><path class="cls-2" d="M113,20V46h-7.82V43.59c-1.41,1.93-4,3.18-7.45,3.18C92.47,46.77,88,43,88,36V20h7.82V34.83c0,3.23,2,4.74,4.53,4.74,2.87,0,4.85-1.66,4.85-5.37V20Z"/><path class="cls-2" d="M134.39,19.45v8.86c-3.24-.52-7.82.79-7.82,5.95V46h-7.82V20h7.82v4.64c1-3.49,4.53-5.16,7.82-5.16"/><path class="cls-2" d="M155.76,33a6,6,0,1,0-12,0,6,6,0,1,0,12,0M136,33a13.82,13.82,0,1,1,13.82,13.76A13.67,13.67,0,0,1,136,33Z"/><path class="cls-2" d="M177.47,31.41c-3.72-1.23-6-2.13-6-4.86S173.63,22,176.86,22a6.35,6.35,0,0,1,6.23,4.19l.19.46,2.44-1.36-.15-.36a9.16,9.16,0,0,0-8.71-5.7c-4.87,0-8.27,3-8.27,7.38,0,4.79,4.07,6.11,8.39,7.51l.11,0c4.32,1.38,6.37,2.49,6.37,5.12,0,3-2.26,4.72-6.05,4.72s-6.44-1.78-7.32-4.88l-.16-.55L167.44,40l.1.33c1.3,4,5,6.4,9.87,6.4,5.34,0,8.93-3,8.93-7.53,0-4.9-4.51-6.39-8.87-7.83"/><polygon class="cls-2" points="205.06 19.97 197.15 32.89 189.21 19.97 185.95 19.97 195.71 35.74 195.71 46.04 198.55 46.04 198.55 35.74 208.31 19.97 205.06 19.97"/><path class="cls-2" d="M217.59,31.41c-3.73-1.23-6-2.13-6-4.86S213.74,22,217,22a6.35,6.35,0,0,1,6.23,4.19l.19.46,2.44-1.36-.15-.36a9.16,9.16,0,0,0-8.71-5.7c-4.87,0-8.27,3-8.27,7.38,0,4.79,4.08,6.11,8.39,7.51l.11,0c4.32,1.38,6.37,2.49,6.37,5.12,0,3-2.26,4.72-6,4.72s-6.44-1.78-7.32-4.88l-.16-.55L207.55,40l.1.33c1.3,4,5,6.4,9.87,6.4,5.34,0,8.93-3,8.93-7.53,0-4.9-4.51-6.39-8.86-7.83"/><polygon class="cls-2" points="227.08 22.7 235.2 22.7 235.2 46.04 238.07 46.04 238.07 22.7 246.19 22.7 246.19 19.97 227.08 19.97 227.08 22.7"/><polygon class="cls-2" points="252.21 34.26 264.01 34.26 264.01 31.53 252.21 31.53 252.21 22.7 264.94 22.7 264.94 19.97 249.37 19.97 249.37 46.04 265.12 46.04 265.12 43.31 252.21 43.31 252.21 34.26"/><polygon class="cls-2" points="281.14 34.84 272.29 20.19 272.16 19.97 269.04 19.97 269.04 46.04 271.87 46.04 271.87 24.88 280.74 39.6 281.57 39.6 290.44 24.88 290.44 46.04 293.28 46.04 293.28 19.97 290.11 19.97 281.14 34.84"/><path class="cls-2" d="M306,31.41c-3.73-1.23-6-2.13-6-4.86S302.11,22,305.33,22a6.35,6.35,0,0,1,6.23,4.19l.19.46,2.44-1.36-.15-.36a9.16,9.16,0,0,0-8.71-5.7c-4.87,0-8.27,3-8.27,7.38,0,4.79,4.08,6.11,8.39,7.51l.11,0c4.32,1.38,6.38,2.49,6.38,5.12,0,3-2.27,4.72-6.06,4.72s-6.44-1.78-7.32-4.88l-.16-.55L295.91,40l.11.33c1.29,4,5,6.4,9.86,6.4,5.34,0,8.93-3,8.93-7.53,0-4.9-4.51-6.39-8.86-7.83"/><path class="cls-8" d="M13.31,17.4c1.66.88,2.69-.07,3.62-.07a3.4,3.4,0,0,1,2.22.55,3.51,3.51,0,0,1,1.36,1.71c.12.25.1,0,.12.42a14.72,14.72,0,0,1-.08,2.93c-.11,1-.09.85.61.84l4.14,0c.2,0,.78.05,1,.1s.18.06.33.21c.73.69-.29,1.3-.77,1.66s-1.58,1-1.81,1.42a1.8,1.8,0,0,0-.17,1c0,.7.8,1,1.27,1.26l2,.93a2.79,2.79,0,0,0,2.31-.07c1-.51.88-1.06.88-2a5.61,5.61,0,0,0-.82-2.49c-.34-.57-.95-1.28.21-2.13.18-.13.22-.2.42-.34a14.31,14.31,0,0,1,1.56-1c1.33-.71,2.19-1.19,1.2-3.16s-1-.81-1.81-.29c-1.21.78-1.75.32-3,.32-1,0-.86,1.38-1.77,1.38A2.23,2.23,0,0,1,27.15,18,3.34,3.34,0,0,1,29,17.17c.29,0,.6.23,1.31.31a12,12,0,0,0,2.23.15c.28-.52,0-.94-.23-1.76-.38-1.44-.75-2.34-2.32-2.83l-3.22-.85a1.64,1.64,0,0,0-.85.29,2.3,2.3,0,0,0-.56.6l-2.13,2.56c-.21,0-.93-.94-1.13-1.18l-1.55-1.91c-.21-.28-.35-.41-.72-.32a8.39,8.39,0,0,0-.89.28c-.51.18-2.29.59-2.47,1.06-.38,1,.42,1.83-1.12,2.34-.77.26-1.83.58-2,1.49"/><path class="cls-8" d="M24.4,30.7l-3.25.14a29,29,0,0,0-2.82,1.95c-.9.66-.48,2.54.71,3.26l1.78.92.2.1a2.08,2.08,0,0,1,.59.41c.11.12.76.94,1,.08a4.73,4.73,0,0,0,.14-1.63c0-.55.07-.39.15-.77.86,0,1.27,1.15,1.48,1.83s-.16,1.25.43.85l1-.74c1-.79,1.85-.84,2.32-2.6l.35-1.34c0-.61-.29-.65-1.16-1.21L26,31.06c-.26-.15-.69-.51-.95-.51s-.28.15-.61.15"/><path class="cls-8" d="M18.55,30.7a3.61,3.61,0,0,0,1.59-.41,10.41,10.41,0,0,0,2.28-1.49.75.75,0,0,0,.18-.27A1.47,1.47,0,0,0,22.5,27,14.45,14.45,0,0,0,19,24.7c-1.36-.28-1.81,1.23-2.27,2.2s-1.11,2.55,0,3.3a3.78,3.78,0,0,0,1.81.5"/><path class="cls-8" d="M12.77,20.09a3.75,3.75,0,0,1,.7-1.84c1.23,0,1,.71,2.15,1.15.83.32.76.24,1.31.08s1.58-.42,1.84.77a2.89,2.89,0,0,1,.08,1.46,2.24,2.24,0,0,1-.5-.11,3.48,3.48,0,0,0-2.61.38,2.87,2.87,0,0,1-2.36.12C12.64,21.64,12.77,20.92,12.77,20.09Z"/></g></g></svg>