<?xml version="1.0" encoding="utf-8"?>
<!-- Generator: Adobe Illustrator 17.0.0, SVG Export Plug-In . SVG Version: 6.00 Build 0)  -->
<!DOCTYPE svg PUBLIC "-//W3C//DTD SVG 1.1//EN" "http://www.w3.org/Graphics/SVG/1.1/DTD/svg11.dtd">
<svg version="1.1" id="_x23_Layer_1" xmlns="http://www.w3.org/2000/svg" xmlns:xlink="http://www.w3.org/1999/xlink" x="0px"
	 y="0px" width="1190.551px" height="841.89px" viewBox="0 0 1190.551 841.89" enable-background="new 0 0 1190.551 841.89"
	 xml:space="preserve">
<g>
	<path fill-rule="evenodd" clip-rule="evenodd" fill="#4E2464" d="M1069.594,139.254c-11.575,10.148-24.64,15.356-39.193,15.627
		c-14.378,0.267-27.101-4.19-38.167-13.372l-0.399-0.334l-0.004,0.003c-18.343-15.465-39.606-23.114-63.787-22.947
		c-24.181,0.167-44.916,7.828-62.205,22.984c-5.003,4.386-9.269,9.006-12.801,13.862c3.46-29.539,17.129-56.03,37.455-75.984
		C978.124-6.937,1139.865,77.656,1069.594,139.254z"/>
	<path fill-rule="evenodd" clip-rule="evenodd" fill="#363537" d="M1069.594,200.598c-11.575-10.148-24.64-15.356-39.193-15.627
		c-14.378-0.267-27.101,4.19-38.167,13.372l-0.399,0.334l-0.004-0.003c-18.343,15.466-39.606,23.114-63.787,22.948
		c-24.181-0.167-44.916-7.828-62.205-22.984c-5.003-4.386-9.269-9.006-12.801-13.862c3.46,29.539,17.129,56.03,37.455,75.984
		C978.124,346.788,1139.865,262.196,1069.594,200.598z"/>
	<polygon fill-rule="evenodd" clip-rule="evenodd" fill="#4E2464" points="646.734,122.939 646.734,181.926 629.6,181.926 
		629.6,122.939 606.865,122.939 606.865,108.384 669.468,108.384 669.468,122.939 	"/>
	<path fill-rule="evenodd" clip-rule="evenodd" fill="#363537" d="M602.033,122.978c-8.387,0-16.454,2.486-20.699,7.456
		c-4.241,4.97-4.614,11.642-4.614,20.017v31.474h-16.975v-75.038l15.223,11.579c6.582-11.098,15.202-9.804,27.823-10.025
		l0.151,14.536C602.639,122.978,602.336,122.978,602.033,122.978z"/>
	<path fill-rule="evenodd" clip-rule="evenodd" fill="#363537" d="M429.389,106.826c10.812,0,20.058,3.405,27.737,10.215
		c7.678,6.812,11.519,15.876,11.519,27.198c0,11.318-3.815,20.522-11.444,27.61c-7.629,7.086-16.521,10.629-26.676,10.629
		c-10.155,0-19.275,0.207-27.358-7.893v28.026l-16.975,11.025V109.526l16.975,10.698v0.544v-0.001
		c0,8.015,0.281,16.074,0.281,24.024c0,6.993,1.739,12.725,6.388,17.186c4.648,4.465,10.306,6.696,16.975,6.696
		s12.479-2.207,17.431-6.625c4.95-4.419,7.425-10.147,7.425-17.188c0-7.042-2.424-12.886-7.275-17.534
		c-4.657-4.462-10.197-6.782-16.624-6.96v-0.021h-24.296C410.103,111.334,418.741,106.826,429.389,106.826z"/>
	<path fill-rule="evenodd" clip-rule="evenodd" fill="#363537" d="M553.905,151.418h-63.203c0.402,5.339,3.081,9.641,8.033,12.909
		c4.952,3.267,10.608,4.899,16.976,4.899c10.104,0,17.784-2.897,23.038-8.695l9.699,9.662c-8.689,8.191-20.006,12.286-33.95,12.286
		c-11.319,0-20.941-3.427-28.873-10.284c-7.934-6.858-11.899-16.061-11.899-27.611c0-11.55,4.041-20.73,12.124-27.542
		c8.086-6.81,17.608-10.215,28.572-10.215c10.964,0,20.285,3.014,27.964,9.043c7.68,6.029,11.519,14.334,11.519,24.918V151.418
		L553.905,151.418z M490.702,139.268h46.228c0-6.166-2.122-10.906-6.365-14.219c-4.243-3.313-9.474-4.971-15.687-4.971
		c-6.216,0-11.797,1.726-16.748,5.177C493.177,128.708,490.702,133.38,490.702,139.268z"/>
	<path fill-rule="evenodd" clip-rule="evenodd" fill="#4E2464" d="M746.688,151.418h-63.203c0.402,5.339,3.081,9.641,8.032,12.909
		c4.952,3.267,10.61,4.899,16.976,4.899c10.103,0,17.784-2.897,23.038-8.695l9.7,9.662c-8.689,8.191-20.008,12.286-33.952,12.286
		c-11.317,0-20.941-3.427-28.874-10.284c-7.932-6.858-11.898-16.061-11.898-27.611c0-11.55,4.042-20.73,12.124-27.542
		c8.086-6.81,17.608-10.215,28.573-10.215c10.962,0,20.285,3.014,27.962,9.043c7.68,6.029,11.521,14.334,11.521,24.918V151.418
		L746.688,151.418z M683.485,139.268h46.226c0-6.166-2.122-10.906-6.365-14.219c-4.242-3.313-9.473-4.971-15.688-4.971
		c-6.213,0-11.797,1.726-16.748,5.177C685.96,128.708,683.485,133.38,683.485,139.268z"/>
	<path fill-rule="evenodd" clip-rule="evenodd" fill="#4E2464" d="M790.262,182.479c-11.215,0-20.866-3.474-28.948-10.422
		c-8.086-6.95-12.125-16.039-12.125-27.265c0-11.229,4.217-20.363,12.654-27.405c8.438-7.041,18.719-10.56,30.844-10.56
		c12.126,0,22.382,3.819,30.767,11.458l-0.001,0.003v12.036h-16.631v-5.267c-4.789-2.583-9.601-3.873-14.438-3.873
		c-7.074,0-13.211,2.14-18.415,6.42c-5.204,4.281-7.807,9.802-7.807,16.567c0,6.765,2.577,12.493,7.73,17.187
		c5.155,4.696,11.493,7.041,19.023,7.041c7.528,0,14.626-3.129,21.293-9.387l10.005,9.941
		C814.413,177.969,803.094,182.479,790.262,182.479z"/>
	<path fill-rule="evenodd" clip-rule="evenodd" fill="#363537" d="M321.745,161.913c4.818,4.48,10.927,6.721,18.332,6.721
		c7.404,0,13.514-2.241,18.332-6.721c4.818-4.481,7.227-10.276,7.227-17.39c0-7.114-2.409-12.91-7.227-17.39
		c-4.818-4.481-10.928-6.722-18.332-6.722c-7.404,0-13.514,2.241-18.332,6.722c-4.817,4.48-7.227,10.275-7.227,17.39
		C314.519,151.637,316.928,157.432,321.745,161.913L321.745,161.913z M370.503,171.475c-8.113,7.341-18.255,11.015-30.426,11.015
		c-12.17,0-22.312-3.674-30.426-11.015c-8.113-7.345-12.171-16.329-12.171-26.952c0-10.624,4.058-19.608,12.171-26.952
		c8.114-7.343,18.256-11.016,30.426-11.016c12.171,0,22.313,3.673,30.426,11.016c8.113,7.344,12.169,16.328,12.169,26.952
		C382.672,155.146,378.616,164.13,370.503,171.475z"/>
	<path fill-rule="evenodd" clip-rule="evenodd" fill="#363537" d="M235.749,161.913c4.817,4.48,10.928,6.721,18.332,6.721
		c7.403,0,13.513-2.241,18.332-6.721c4.817-4.481,7.225-10.276,7.225-17.39c0-7.114-2.408-12.91-7.225-17.39
		c-4.818-4.481-10.929-6.722-18.332-6.722c-7.404,0-13.515,2.241-18.332,6.722c-4.818,4.48-7.226,10.275-7.226,17.39
		C228.523,151.637,230.931,157.432,235.749,161.913L235.749,161.913z M284.507,171.475c-8.114,7.341-18.256,11.015-30.425,11.015
		c-12.171,0-22.313-3.674-30.426-11.015c-8.114-7.345-12.171-16.329-12.171-26.952c0-10.624,4.057-19.608,12.171-26.952
		c8.113-7.343,18.255-11.016,30.426-11.016c12.17,0,22.312,3.673,30.425,11.016c8.113,7.344,12.17,16.328,12.17,26.952
		C296.677,155.146,292.62,164.13,284.507,171.475z"/>
	<path fill-rule="evenodd" clip-rule="evenodd" fill="#363537" d="M179.448,183.019c-11.416,0-21.235-3.537-29.462-10.607
		c-8.227-7.073-12.34-16.323-12.34-27.749c0-11.425,4.294-20.722,12.88-27.888c8.585-7.165,19.05-10.748,31.388-10.748
		c12.34,0,22.778,3.886,31.313,11.661l-10.18,11.382c-7.095-5.621-14.242-8.431-21.44-8.431c-7.198,0-13.445,2.176-18.741,6.533
		c-5.296,4.355-7.944,9.976-7.944,16.86c0,6.883,2.623,12.715,7.866,17.492c5.245,4.777,11.698,7.163,19.358,7.163
		c7.662,0,14.885-3.183,21.673-9.552L214,169.252C204.024,178.428,192.508,183.019,179.448,183.019z"/>
	<path fill-rule="evenodd" clip-rule="evenodd" fill="#363537" d="M171.601,252.067l2.213-1.212
		c1.563,2.622,3.365,3.936,5.411,3.936c0.877,0,1.7-0.187,2.469-0.559c0.768-0.369,1.355-0.87,1.754-1.494
		c0.405-0.623,0.606-1.283,0.606-1.983c0-0.794-0.297-1.571-0.891-2.336c-0.817-1.055-2.306-2.326-4.478-3.81
		c-2.178-1.499-3.533-2.58-4.065-3.245c-0.926-1.118-1.386-2.332-1.386-3.631c0-1.032,0.273-1.974,0.818-2.824
		c0.545-0.848,1.313-1.515,2.306-2.004c0.992-0.491,2.063-0.734,3.225-0.734c1.233,0,2.388,0.276,3.46,0.832
		c1.071,0.551,2.208,1.571,3.406,3.054l-2.13,1.472c-0.986-1.185-1.827-1.968-2.523-2.344c-0.695-0.38-1.452-0.567-2.269-0.567
		c-1.058,0-1.924,0.291-2.595,0.872c-0.671,0.584-1.01,1.294-1.01,2.148c0,0.513,0.121,1.014,0.357,1.499s0.672,1.008,1.3,1.582
		c0.339,0.298,1.471,1.091,3.383,2.369c2.263,1.521,3.818,2.872,4.659,4.052c0.841,1.185,1.265,2.376,1.265,3.571
		c0,1.721-0.721,3.22-2.155,4.486c-1.439,1.275-3.188,1.908-5.245,1.908c-1.585,0-3.026-0.387-4.315-1.158
		C173.882,255.174,172.69,253.878,171.601,252.067z"/>
	<path fill-rule="evenodd" clip-rule="evenodd" fill="#363537" d="M216.277,232.17c3.945,0,7.249,1.202,9.906,3.598
		c2.656,2.4,3.987,5.353,3.987,8.858c0,3.479-1.324,6.425-3.975,8.845c-2.656,2.42-5.887,3.633-9.705,3.633
		c-3.861,0-7.122-1.208-9.778-3.617c-2.657-2.409-3.987-5.324-3.987-8.747c0-2.28,0.605-4.39,1.814-6.342
		c1.21-1.945,2.863-3.472,4.956-4.575C211.581,232.72,213.844,232.17,216.277,232.17L216.277,232.17z M216.392,234.486
		c-1.924,0-3.751,0.457-5.482,1.373c-1.724,0.915-3.074,2.144-4.048,3.692c-0.968,1.554-1.452,3.278-1.452,5.186
		c0,2.814,1.072,5.196,3.22,7.137c2.147,1.945,4.738,2.916,7.763,2.916c2.026,0,3.896-0.448,5.615-1.341
		c1.724-0.892,3.067-2.116,4.03-3.664c0.962-1.549,1.446-3.27,1.446-5.165c0-1.884-0.484-3.589-1.446-5.11
		c-0.963-1.52-2.323-2.738-4.073-3.653C220.216,234.942,218.359,234.486,216.392,234.486z"/>
	<polygon fill-rule="evenodd" clip-rule="evenodd" fill="#363537" points="246.884,232.766 249.499,232.766 249.499,254.194 
		259.554,254.194 259.554,256.509 246.884,256.509 	"/>
	<path fill-rule="evenodd" clip-rule="evenodd" fill="#363537" d="M275.24,232.766h2.614v14.34c0,1.699,0.037,2.761,0.11,3.18
		c0.128,0.936,0.43,1.721,0.901,2.348c0.472,0.629,1.198,1.158,2.179,1.582c0.98,0.424,1.967,0.639,2.964,0.639
		c0.86,0,1.69-0.164,2.482-0.501c0.786-0.332,1.451-0.795,1.984-1.389c0.532-0.589,0.919-1.306,1.168-2.145
		c0.176-0.605,0.266-1.84,0.266-3.714v-14.34h2.614v14.328c0,2.123-0.23,3.837-0.684,5.144c-0.453,1.305-1.368,2.445-2.729,3.411
		c-1.367,0.97-3.019,1.456-4.962,1.456c-2.105,0-3.909-0.458-5.41-1.374c-1.506-0.916-2.511-2.121-3.019-3.632
		c-0.321-0.924-0.478-2.589-0.478-5.005V232.766z"/>
	<path fill-rule="evenodd" clip-rule="evenodd" fill="#363537" d="M334.673,237.147l-2.056,1.438
		c-1.132-1.345-2.493-2.363-4.085-3.059c-1.584-0.695-3.327-1.041-5.233-1.041c-2.075,0-4,0.457-5.772,1.365
		c-1.773,0.91-3.141,2.134-4.115,3.666c-0.973,1.533-1.464,3.263-1.464,5.176c0,2.899,1.089,5.318,3.268,7.253
		c2.178,1.94,4.925,2.909,8.247,2.909c3.649,0,6.698-1.299,9.155-3.902l2.056,1.423c-1.3,1.502-2.922,2.673-4.864,3.494
		c-1.942,0.82-4.114,1.234-6.511,1.234c-4.563,0-8.162-1.382-10.795-4.151c-2.208-2.33-3.316-5.153-3.316-8.453
		c0-3.474,1.338-6.4,4.012-8.769c2.681-2.375,6.032-3.561,10.062-3.561c2.432,0,4.629,0.436,6.59,1.307
		C331.812,234.352,333.422,235.578,334.673,237.147L334.673,237.147z M321.568,256.509h1.561l-0.303,1.934
		c0.273-0.033,0.496-0.049,0.672-0.049c0.575,0,1.06,0.164,1.446,0.496c0.388,0.331,0.582,0.744,0.582,1.238
		c0,0.713-0.351,1.319-1.06,1.822c-0.708,0.495-1.707,0.744-2.995,0.744c-1.047,0-2.032-0.16-2.953-0.485l0.388-1.13
		c0.757,0.215,1.464,0.325,2.123,0.325c0.884,0,1.506-0.099,1.858-0.298c0.356-0.204,0.532-0.451,0.532-0.756
		c0-0.187-0.097-0.347-0.29-0.488c-0.194-0.139-0.46-0.21-0.804-0.21c-0.278,0-0.69,0.05-1.235,0.142L321.568,256.509z"/>
	<path fill-rule="evenodd" clip-rule="evenodd" fill="#363537" d="M363.811,232.17c3.944,0,7.248,1.202,9.905,3.598
		c2.657,2.4,3.987,5.353,3.987,8.858c0,3.479-1.325,6.425-3.974,8.845c-2.657,2.42-5.888,3.633-9.707,3.633
		c-3.86,0-7.121-1.208-9.778-3.617c-2.656-2.409-3.987-5.324-3.987-8.747c0-2.28,0.604-4.39,1.815-6.342
		c1.21-1.945,2.862-3.472,4.956-4.575C359.116,232.72,361.378,232.17,363.811,232.17L363.811,232.17z M363.927,234.486
		c-1.924,0-3.752,0.457-5.482,1.373c-1.725,0.915-3.075,2.144-4.048,3.692c-0.969,1.554-1.454,3.278-1.454,5.186
		c0,2.814,1.072,5.196,3.22,7.137c2.147,1.945,4.737,2.916,7.764,2.916c2.026,0,3.896-0.448,5.615-1.341
		c1.725-0.892,3.068-2.116,4.029-3.664c0.962-1.549,1.447-3.27,1.447-5.165c0-1.884-0.485-3.589-1.447-5.11
		c-0.961-1.52-2.323-2.738-4.072-3.653C367.75,234.942,365.893,234.486,363.927,234.486L363.927,234.486z M369.238,227.607
		l1.241,1.565c-0.853,0.567-1.567,0.954-2.154,1.148c-0.586,0.197-1.204,0.296-1.852,0.296c-0.853,0-1.731-0.203-2.626-0.606
		c-0.768-0.347-1.258-0.547-1.47-0.602c-0.284-0.077-0.593-0.114-0.925-0.114c-0.413,0-0.806,0.071-1.181,0.209
		c-0.369,0.139-0.907,0.458-1.621,0.947l-1.168-1.647c1.077-1.084,2.408-1.625,3.987-1.625c0.757,0,1.665,0.221,2.717,0.667
		c1.005,0.436,1.796,0.655,2.372,0.655C367.212,228.5,368.101,228.204,369.238,227.607z"/>
	<polygon fill-rule="evenodd" clip-rule="evenodd" fill="#363537" points="394.455,232.766 409.376,232.766 409.376,235.08 
		397.069,235.08 397.069,242.521 409.267,242.521 409.267,244.836 397.069,244.836 397.069,254.194 409.267,254.194 
		409.267,256.509 394.455,256.509 	"/>
	<path fill-rule="evenodd" clip-rule="evenodd" fill="#363537" d="M422.679,252.067l2.214-1.212
		c1.561,2.622,3.365,3.936,5.409,3.936c0.878,0,1.701-0.187,2.47-0.559c0.768-0.369,1.355-0.87,1.754-1.494
		c0.405-0.623,0.604-1.283,0.604-1.983c0-0.794-0.295-1.571-0.888-2.336c-0.817-1.055-2.306-2.326-4.478-3.81
		c-2.178-1.499-3.534-2.58-4.066-3.245c-0.925-1.118-1.385-2.332-1.385-3.631c0-1.032,0.272-1.974,0.818-2.824
		c0.544-0.848,1.313-1.515,2.305-2.004c0.993-0.491,2.064-0.734,3.225-0.734c1.233,0,2.389,0.276,3.461,0.832
		c1.071,0.551,2.208,1.571,3.407,3.054l-2.131,1.472c-0.986-1.185-1.827-1.968-2.523-2.344c-0.695-0.38-1.452-0.567-2.269-0.567
		c-1.057,0-1.924,0.291-2.595,0.872c-0.671,0.584-1.011,1.294-1.011,2.148c0,0.513,0.121,1.014,0.357,1.499s0.671,1.008,1.301,1.582
		c0.339,0.298,1.47,1.091,3.382,2.369c2.264,1.521,3.818,2.872,4.66,4.052c0.839,1.185,1.264,2.376,1.264,3.571
		c0,1.721-0.721,3.22-2.155,4.486c-1.439,1.275-3.188,1.908-5.246,1.908c-1.585,0-3.025-0.387-4.314-1.158
		C424.959,255.174,423.767,253.878,422.679,252.067z"/>
	<polygon fill-rule="evenodd" clip-rule="evenodd" fill="#363537" points="465.013,232.766 479.935,232.766 479.935,235.08 
		467.627,235.08 467.627,242.521 479.825,242.521 479.825,244.836 467.627,244.836 467.627,254.194 479.825,254.194 
		479.825,256.509 465.013,256.509 	"/>
	<polygon fill-rule="evenodd" clip-rule="evenodd" fill="#363537" points="494.798,256.509 498.41,232.766 498.949,232.766 
		509.556,252.243 520.096,232.766 520.489,232.766 524.242,256.509 521.717,256.509 519.105,239.511 509.87,256.509 
		509.187,256.509 499.863,239.378 497.364,256.509 	"/>
	<path fill-rule="evenodd" clip-rule="evenodd" fill="#363537" d="M548.131,252.067l2.216-1.212
		c1.561,2.622,3.364,3.936,5.408,3.936c0.877,0,1.7-0.187,2.469-0.559c0.769-0.369,1.356-0.87,1.754-1.494
		c0.408-0.623,0.607-1.283,0.607-1.983c0-0.794-0.296-1.571-0.889-2.336c-0.817-1.055-2.305-2.326-4.477-3.81
		c-2.179-1.499-3.535-2.58-4.068-3.245c-0.925-1.118-1.386-2.332-1.386-3.631c0-1.032,0.273-1.974,0.819-2.824
		c0.544-0.848,1.313-1.515,2.305-2.004c0.991-0.491,2.064-0.734,3.224-0.734c1.235,0,2.391,0.276,3.461,0.832
		c1.072,0.551,2.209,1.571,3.407,3.054l-2.129,1.472c-0.988-1.185-1.828-1.968-2.523-2.344c-0.697-0.38-1.453-0.567-2.27-0.567
		c-1.059,0-1.923,0.291-2.594,0.872c-0.671,0.584-1.012,1.294-1.012,2.148c0,0.513,0.121,1.014,0.358,1.499
		c0.236,0.485,0.671,1.008,1.299,1.582c0.34,0.298,1.471,1.091,3.383,2.369c2.264,1.521,3.819,2.872,4.659,4.052
		c0.842,1.185,1.264,2.376,1.264,3.571c0,1.721-0.719,3.22-2.153,4.486c-1.44,1.275-3.19,1.908-5.246,1.908
		c-1.585,0-3.026-0.387-4.317-1.158C550.412,255.174,549.221,253.878,548.131,252.067z"/>
	<rect x="580.017" y="232.766" fill-rule="evenodd" clip-rule="evenodd" fill="#363537" width="2.614" height="23.743"/>
	<path fill-rule="evenodd" clip-rule="evenodd" fill="#363537" d="M597.379,252.067l2.213-1.212
		c1.564,2.622,3.366,3.936,5.411,3.936c0.877,0,1.7-0.187,2.469-0.559c0.768-0.369,1.356-0.87,1.754-1.494
		c0.407-0.623,0.607-1.283,0.607-1.983c0-0.794-0.297-1.571-0.891-2.336c-0.817-1.055-2.307-2.326-4.477-3.81
		c-2.179-1.499-3.534-2.58-4.067-3.245c-0.926-1.118-1.387-2.332-1.387-3.631c0-1.032,0.273-1.974,0.819-2.824
		c0.544-0.848,1.313-1.515,2.305-2.004c0.992-0.491,2.064-0.734,3.225-0.734c1.235,0,2.389,0.276,3.461,0.832
		c1.072,0.551,2.209,1.571,3.407,3.054l-2.129,1.472c-0.987-1.185-1.828-1.968-2.525-2.344c-0.695-0.38-1.451-0.567-2.268-0.567
		c-1.059,0-1.926,0.291-2.597,0.872c-0.671,0.584-1.009,1.294-1.009,2.148c0,0.513,0.121,1.014,0.357,1.499
		c0.236,0.485,0.672,1.008,1.299,1.582c0.34,0.298,1.471,1.091,3.383,2.369c2.263,1.521,3.818,2.872,4.659,4.052
		c0.843,1.185,1.265,2.376,1.265,3.571c0,1.721-0.719,3.22-2.155,4.486c-1.438,1.275-3.188,1.908-5.245,1.908
		c-1.586,0-3.026-0.387-4.315-1.158C599.659,255.174,598.468,253.878,597.379,252.067z"/>
	<polygon fill-rule="evenodd" clip-rule="evenodd" fill="#363537" points="627.048,235.08 627.048,232.766 641.317,232.766 
		641.317,235.08 635.508,235.08 635.508,256.509 632.857,256.509 632.857,235.08 	"/>
	<polygon fill-rule="evenodd" clip-rule="evenodd" fill="#363537" points="656.603,232.766 671.524,232.766 671.524,235.08 
		659.218,235.08 659.218,242.521 671.416,242.521 671.416,244.836 659.218,244.836 659.218,254.194 671.416,254.194 
		671.416,256.509 656.603,256.509 	"/>
	<polygon fill-rule="evenodd" clip-rule="evenodd" fill="#363537" points="686.388,256.509 690,232.766 690.538,232.766 
		701.146,252.243 711.688,232.766 712.08,232.766 715.831,256.509 713.308,256.509 710.694,239.511 701.461,256.509 
		700.776,256.509 691.453,239.378 688.953,256.509 	"/>
	<path fill-rule="evenodd" clip-rule="evenodd" fill="#363537" d="M743.032,232.766l12.164,23.743h-2.803l-4.072-7.804h-11.296
		l-4.049,7.804h-2.904l12.305-23.743H743.032L743.032,232.766z M742.706,237.748l-4.484,8.642h8.95L742.706,237.748z"/>
	<path fill-rule="evenodd" clip-rule="evenodd" fill="#363537" d="M768.005,252.067l2.215-1.212c1.56,2.622,3.364,3.936,5.409,3.936
		c0.878,0,1.701-0.187,2.47-0.559c0.769-0.369,1.356-0.87,1.754-1.494c0.405-0.623,0.604-1.283,0.604-1.983
		c0-0.794-0.294-1.571-0.888-2.336c-0.819-1.055-2.307-2.326-4.479-3.81c-2.18-1.499-3.532-2.58-4.066-3.245
		c-0.925-1.118-1.387-2.332-1.387-3.631c0-1.032,0.273-1.974,0.817-2.824c0.546-0.848,1.313-1.515,2.307-2.004
		c0.992-0.491,2.062-0.734,3.225-0.734c1.234,0,2.388,0.276,3.46,0.832c1.071,0.551,2.21,1.571,3.407,3.054l-2.13,1.472
		c-0.986-1.185-1.827-1.968-2.524-2.344c-0.694-0.38-1.45-0.567-2.267-0.567c-1.059,0-1.926,0.291-2.598,0.872
		c-0.671,0.584-1.009,1.294-1.009,2.148c0,0.513,0.119,1.014,0.356,1.499c0.235,0.485,0.671,1.008,1.3,1.582
		c0.34,0.298,1.471,1.091,3.383,2.369c2.264,1.521,3.816,2.872,4.658,4.052c0.841,1.185,1.265,2.376,1.265,3.571
		c0,1.721-0.721,3.22-2.155,4.486c-1.44,1.275-3.188,1.908-5.245,1.908c-1.585,0-3.026-0.387-4.315-1.158
		C770.286,255.174,769.095,253.878,768.005,252.067z"/>
</g>
</svg>
